HIERARCHY
ROOT Hips
{
	OFFSET 0.000000 0.000000 0.000000
	CHANNELS 6 Xposition Yposition Zposition Zrotation Yrotation Xrotation 
	JOINT LHipJoint
	{
		OFFSET 0.000000 0.000000 0.000000
		CHANNELS 3 Zrotation Yrotation Xrotation
		JOINT LeftUpLeg
		{
			OFFSET 1.363060 -1.794630 0.839290
			CHANNELS 3 Zrotation Yrotation Xrotation
			JOINT LeftLeg
			{
				OFFSET 2.448110 -6.726130 0.000000
				CHANNELS 3 Zrotation Yrotation Xrotation
				JOINT LeftFoot
				{
					OFFSET 2.562200 -7.039590 0.000000
					CHANNELS 3 Zrotation Yrotation Xrotation
					JOINT LeftToeBase
					{
						OFFSET 0.157640 -0.433110 2.322550
						CHANNELS 3 Zrotation Yrotation Xrotation
						End Site
						{
							OFFSET 0.000000 0.000000 0.000000
						}
					}
				}
			}
		}
	}
	JOINT RHipJoint
	{
		OFFSET 0.000000 0.000000 0.000000
		CHANNELS 3 Zrotation Yrotation Xrotation
		JOINT RightUpLeg
		{
			OFFSET -1.305520 -1.794630 0.839290
			CHANNELS 3 Zrotation Yrotation Xrotation
			JOINT RightLeg
			{
				OFFSET -2.542530 -6.985550 0.000000
				CHANNELS 3 Zrotation Yrotation Xrotation
				JOINT RightFoot
				{
					OFFSET -2.568260 -7.056230 0.000000
					CHANNELS 3 Zrotation Yrotation Xrotation
					JOINT RightToeBase
					{
						OFFSET -0.164730 -0.452590 2.363150
						CHANNELS 3 Zrotation Yrotation Xrotation
						End Site
						{
							OFFSET 0.000000 0.000000 0.000000
						}
					}
				}
			}
		}
	}
}
MOTION
Frames: 16
Frame Time: 0.008333
-0.034634 16.825952 -0.794976 176.601292 84.784224 170.056448 -11.360194 5.273465 -0.189643 9.042644 11.308229 11.295747 0.360946 2.702189 35.774785 1.183060 -5.614574 25.609401 -3.558700 0.000000 -73.470699 9.283092 -0.818727 -1.862366 14.832324 -18.291986 -19.760834 1.524105 -0.758771 21.157873 -4.204519 -19.922937 -10.166655 -0.156000 0.000000 -7.501100
0.127225 16.822506 -0.740804 178.256968 84.859246 171.630058 -11.454521 5.214490 -0.203516 9.677425 11.482670 10.094899 0.448262 2.751775 38.055004 1.313674 -5.135061 26.443083 -3.447700 0.000000 -68.932699 9.241034 -0.888690 -1.930854 15.093624 -18.406153 -19.439728 1.539822 -0.822367 21.999746 -4.199067 -19.735732 -10.904514 0.149100 0.000000 -5.394800
0.286024 16.818598 -0.685907 179.746760 84.937307 173.049847 -11.540607 5.141244 -0.233008 10.222109 11.683031 8.826544 0.531872 2.809739 40.346064 1.443248 -4.104865 26.828454 -3.000801 -0.000000 -64.319100 9.195783 -0.950829 -1.991144 15.355077 -18.485967 -19.037507 1.552503 -0.864934 22.676817 -4.220225 -19.644567 -11.715971 0.474400 0.000000 -3.398899
0.441940 16.814629 -0.630304 -178.968213 85.016591 174.275341 -11.617405 5.055256 -0.275983 10.664326 11.896331 7.507807 0.614631 2.877620 42.614171 1.571490 -2.553392 26.744320 -2.240700 -0.000001 -59.846500 9.149241 -1.005160 -2.042366 15.607634 -18.525146 -18.557797 1.561482 -0.889407 23.201514 -4.263918 -19.637422 -12.570069 0.812800 -0.000001 -1.582100
0.595052 16.811105 -0.574152 -177.902169 85.099706 175.289827 -11.684501 4.957912 -0.330088 10.995368 12.109707 6.159079 0.697688 2.954988 44.819922 1.699522 -0.558152 26.196141 -1.235600 -0.000001 -55.725700 9.103068 -1.052027 -2.084787 15.844610 -18.519724 -18.005004 1.566536 -0.899008 23.587817 -4.324738 -19.696870 -13.435434 -178.843501 0.000000 -0.015100
0.745522 16.808532 -0.517597 -177.078412 85.193550 176.067893 -11.741130 4.850959 -0.393288 11.209154 12.314851 4.802157 0.780192 3.039794 46.923080 1.828475 1.765071 25.209383 -0.086100 -0.000000 -52.145000 9.059503 -1.091873 -2.118720 16.059340 -18.466248 -17.387103 1.567652 -0.897382 23.854779 -4.396552 -19.801633 -14.284900 -178.502600 0.000000 -1.379900
0.893396 16.807468 -0.460661 -176.493388 85.301223 176.616284 -11.786997 4.737460 -0.461987 11.305577 12.504727 3.440484 0.859554 3.130081 48.901262 1.956499 4.268075 23.795696 1.086999 0.000000 -48.802000 9.019551 -1.124735 -2.141038 16.251419 -18.350428 -16.715753 1.564157 -0.886511 24.014287 -4.476908 -19.945943 -15.096215 -178.171700 0.000000 -2.527300
1.038717 16.808356 -0.403558 -176.175353 85.438501 176.903783 -11.821010 4.619482 -0.534980 11.282741 12.678060 2.100069 0.932191 3.221342 50.710256 2.083845 6.809826 22.035683 2.173100 -0.000000 -45.915300 8.985739 -1.151333 -2.153834 16.415105 -18.176532 -16.000502 1.557149 -0.870064 24.087642 -4.558609 -20.101434 -15.854640 -177.857200 -0.000000 -3.492500
1.181477 16.811526 -0.346406 -176.134548 85.615786 176.921979 -11.842436 4.500077 -0.610074 11.144379 12.834931 0.788729 0.993868 3.310047 52.327343 2.206799 9.248320 19.990860 3.076599 -0.000000 -43.269500 8.959322 -1.172048 -2.156479 16.550709 -17.941023 -15.252498 1.547272 -0.849888 24.087128 -4.638193 -20.254781 -16.551548 -177.563900 0.000000 -4.321200
1.321721 16.817263 -0.289151 -176.384650 85.841650 176.662195 -11.850576 4.381693 -0.683148 10.893715 12.968976 -0.489664 1.040655 3.391446 53.728947 2.322839 11.473787 17.773211 3.741700 0.000000 -41.018400 8.940631 -1.186733 -2.146838 16.662401 -17.632300 -14.478678 1.534771 -0.826169 24.013786 -4.715661 -20.405880 -17.185361 -177.293700 0.000000 -5.069900
1.459504 16.825612 -0.231898 -176.990796 86.128241 176.060902 -11.843190 4.267204 -0.753310 10.535570 13.084854 -1.729214 1.069086 3.462587 54.904635 2.425041 13.392645 15.455951 4.140200 -0.000000 -38.896700 8.932396 -1.195808 -2.126498 16.748622 -17.261323 -13.690533 1.521360 -0.800340 23.879837 -4.786515 -20.533595 -17.759182 -177.048100 0.000000 -5.779900
1.594902 16.836504 -0.174679 -178.023591 86.481658 175.052271 -11.818174 4.158669 -0.817771 10.075972 13.179869 -2.932613 1.076908 3.520580 55.849895 2.507611 14.948178 13.130374 4.282000 -0.000001 -36.853100 8.936307 -1.199378 -2.094938 16.813633 -16.829722 -12.895438 1.508095 -0.772097 23.685667 -4.849976 -20.632358 -18.278989 -176.826700 -0.000000 -6.483800
1.728028 16.849679 -0.117264 -179.615833 86.905744 173.508003 -11.771996 4.056903 -0.873815 9.521765 13.247906 -4.101119 1.063721 3.562363 56.559346 2.567401 16.123529 10.916441 4.216000 -0.000000 -35.209700 8.955204 -1.196882 -2.051153 16.862561 -16.334149 -12.094307 1.495650 -0.740146 23.423603 -4.907366 -20.704426 -18.756316 -176.625800 0.000000 -7.229700
1.859070 16.864818 -0.059768 178.033864 87.398950 171.234203 -11.699753 3.962461 -0.919949 8.883264 13.286378 -5.244265 1.030058 3.587190 57.046372 2.598887 16.912536 8.852389 3.988300 0.000000 -33.683500 8.993829 -1.189374 -1.995768 16.900942 -15.788797 -11.296783 1.485789 -0.704454 23.096092 -4.956535 -20.738992 -19.196992 -176.445000 -0.000000 -8.008400
1.988250 16.881447 -0.002058 174.578393 87.952821 167.887644 -11.593724 3.872843 -0.955126 8.173619 13.287073 -6.369242 0.978545 3.593184 57.322631 2.600821 17.340032 6.990547 3.659100 0.000000 -32.326299 9.059354 -1.178630 -1.927907 16.937497 -15.198307 -10.505498 1.480041 -0.664764 22.696378 -4.998039 -20.737818 -19.608271 -176.281900 -0.000000 -8.821000
2.115805 16.899057 0.055904 169.410939 88.546046 162.864976 -11.442905 3.780109 -0.979211 7.409508 13.237092 -7.483584 0.914280 3.576305 57.404986 2.574416 17.448830 5.355198 3.281400 0.000000 -31.140900 9.162436 -1.170796 -1.846549 16.983094 -14.573576 -9.726526 1.481633 -0.623065 22.220166 -5.031598 -20.701512 -19.994467 -176.135700 -0.000000 -9.650400
